<?xml version="1.0" encoding="UTF-8"?> <svg xmlns="http://www.w3.org/2000/svg" fill="none" viewBox="0 0 500 500"><path fill="#06F" d="M343.525 174.897l-1.29 178.514c.438 7.883 7.115 13.957 15.032 13.556 7.648-.4 13.618-6.705 13.549-14.354l.342-211.657c-.034-.906-.403-1.745-.571-2.65-.168-.839-.235-1.711-.571-2.516-.738-1.678-1.745-3.221-3.054-4.53a15.632 15.632 0 0 0-4.563-3.02c-.838-.369-1.711-.437-2.583-.571-.839-.168-1.644-.571-2.549-.605l-207.785-.947c-7.884-.237-14.457 5.934-14.69 13.817 0 0-.034.034 0 .067-.233 7.884 6.008 14.46 13.892 14.697h174.641l-192.07 192.07c-5.567 5.567-5.565 14.624.039 20.228 5.57 5.57 14.627 5.572 20.161-.029l192.07-192.07z"></path></svg> 