<?xml version="1.0" encoding="UTF-8"?> <svg xmlns="http://www.w3.org/2000/svg" id="Artwork" version="1.1" viewBox="0 0 500 500"><defs><style> .st0 { fill: #535753; } </style></defs><path class="st0" d="M458.3,98.9h-73.2c-74.1,0-114.9,40.4-114.9,113.6s5.2,47.9,15.1,65.3c-5.5,10.3-10.7,21.3-15.6,33.1-8,19-14.5,38.3-19.7,56.5-4.8-47.3-14.7-103.5-39-151.2,12.5-18.5,19.1-42.7,19.1-72.2,0-74-40.8-114.7-114.9-114.7H41.8c-23,0-41.7,18.7-41.8,41.7v79c0,.9.1,1.9.3,2.8,3.2,68.3,43.6,105.8,114.8,105.8s56.6-7.3,75.5-21.2c5,10.8,9.5,22.4,13.4,35,17.2,55,20.5,114.7,22.8,154.1.9,15.8,1.6,28.3,3,36.7,1.1,6.8,6.9,11.6,13.6,11.6h.6c6.3-.3,11.8-5,12.9-11.5,3.3-20.5,13.4-82.6,38.2-141.8,3-7.2,6.1-14,9.3-20.6,19.3,16.6,46.5,25.2,80.8,25.2,71.3,0,111.8-37.4,114.8-105.4.1-.7.2-1.4.2-2.1v-78.2c-.1-23-18.9-41.5-41.9-41.5ZM194.7,188.9c-19.6-28.2-46-51.4-81.6-65.1-7.1-2.7-15.1.9-17.8,7.9-2.7,7.1.9,15.1,7.9,17.8,30.2,11.6,55,32.8,74.1,63.3-14.4,12.3-35.1,18.3-62.3,18.3-58.9,0-87.6-28.5-87.6-87.2s0-.9-.1-1.4v-71.4c.1-7.9,6.5-14.4,14.4-14.4h73.3c58.9,0,87.5,28.5,87.5,87.2.1,17.7-2.5,32.7-7.8,45ZM385.1,298.7c-30.4,0-52.7-7.5-67.3-22.7,25.2-41.3,55.4-65.4,90-71.7,7.5-1.4,12.4-8.5,11.1-16-1.4-7.5-8.5-12.4-16-11.1-30.7,5.6-58.4,22.1-82.5,49.1-6.2,7-12.2,14.6-17.9,23-3.4-10.6-5.1-22.9-5.1-36.9,0-58.1,28.7-86.3,87.7-86.3h73.3c8,0,14.5,6.3,14.5,14.1v72.2c0,58-28.8,86.3-87.8,86.3Z"></path></svg> 