<?xml version="1.0" encoding="UTF-8"?> <svg xmlns="http://www.w3.org/2000/svg" width="30" height="44" viewBox="0 0 30 44" fill="none"><g clip-path="url(#clip0_1_20)"><path d="M27.36 17.3037C25.9022 17.3037 24.72 18.4979 24.72 19.9706V21.0122C24.4444 20.9135 24.1511 20.8596 23.84 20.8596C22.3822 20.8596 21.2 22.0539 21.2 23.5265V26.3461C20.8444 26.4718 20.5067 26.6784 20.2222 26.9657L17.4667 29.6865C16.4 30.7641 15.5644 32.0212 14.9867 33.431C14.9867 33.431 14.9867 33.44 14.9867 33.449C14.4089 32.0571 13.5555 30.773 12.48 29.6865L9.77777 26.9567C9.49333 26.6694 9.15555 26.4539 8.7911 26.3281V23.5175C8.7911 22.0449 7.60888 20.8506 6.1511 20.8506C5.83999 20.8506 5.54666 20.9045 5.2711 21.0032V19.9616C5.2711 18.489 4.08888 17.2947 2.6311 17.2947C1.17333 17.2947 -0.00889587 18.489 -0.00889587 19.9616V29.6326C-0.00889587 30.4408 0.204437 31.231 0.613326 31.9135L3.57333 36.9061C4.69333 38.8008 5.31555 41.0008 5.31555 43.102C5.31555 43.5959 5.70666 43.991 6.19555 43.991H23.7689C24.2578 43.991 24.6489 43.5959 24.6489 43.102C24.6489 40.9918 25.2711 38.7918 26.3911 36.9061L29.3511 31.9135C29.76 31.222 29.9733 30.4318 29.9733 29.6326V19.9616C29.9733 18.489 28.7911 17.2947 27.3333 17.2947L27.36 17.3037ZM5.2711 23.5175C5.2711 23.0237 5.66222 22.6286 6.1511 22.6286C6.63999 22.6286 7.0311 23.0237 7.0311 23.5175V26.3281C6.66666 26.4628 6.32888 26.6694 6.04444 26.9567C5.8311 27.1722 5.65333 27.4237 5.52888 27.693C5.35999 27.5224 5.2711 27.3069 5.2711 27.0645V23.5175ZM14.1155 42.222H7.05777C6.90666 40.0759 6.22222 37.8939 5.09333 35.9992L2.13333 31.0065C1.88444 30.5935 1.75999 30.1175 1.75999 29.6326V19.9616C1.75999 19.4677 2.1511 19.0726 2.63999 19.0726C3.12888 19.0726 3.51999 19.4677 3.51999 19.9616V27.0645C3.51999 27.7739 3.79555 28.4384 4.29333 28.9412L9.04888 33.7453C9.39555 34.0955 9.94666 34.0955 10.2933 33.7453C10.64 33.3951 10.64 32.8384 10.2933 32.4881L7.28888 29.453C6.94222 29.1028 6.94222 28.5461 7.28888 28.1959C7.63555 27.8457 8.18666 27.8457 8.53333 28.1959L11.2355 30.9257C13.0755 32.7845 14.1244 35.2988 14.1244 37.831V42.2041L14.1155 42.222ZM22.96 23.5175C22.96 23.0237 23.3511 22.6286 23.84 22.6286C24.3289 22.6286 24.72 23.0237 24.72 23.5175V27.0645C24.72 27.2979 24.6311 27.5224 24.4622 27.693C24.3378 27.4237 24.1689 27.1812 23.9467 26.9567C23.6622 26.6694 23.3244 26.4539 22.96 26.3281V23.5086V23.5175ZM28.2311 29.6326C28.2311 30.1175 28.0978 30.5935 27.8578 31.0065L24.8978 35.9992C23.7689 37.9028 23.0844 40.0759 22.9333 42.222H15.8755V37.849C15.8755 35.2449 16.88 32.7935 18.7022 30.9437L21.4578 28.2228C21.8044 27.8726 22.3555 27.8726 22.7022 28.2228C23.0489 28.573 23.0489 29.1298 22.7022 29.48L19.6978 32.5151C19.3511 32.8653 19.3511 33.422 19.6978 33.7722C20.0444 34.1224 20.5955 34.1224 20.9422 33.7722L25.6978 28.9681C26.1955 28.4653 26.4711 27.8008 26.4711 27.0914V19.9886C26.4711 19.4947 26.8622 19.0996 27.3511 19.0996C27.84 19.0996 28.2311 19.4947 28.2311 19.9886V29.6596V29.6326Z" fill="#0066FF"></path><path fill-rule="evenodd" clip-rule="evenodd" d="M13.0044 2.02035C12.5778 2.46035 12.3644 3.16974 12.3644 4.13954C12.3644 5.10933 12.5867 5.80974 13.0044 6.24974C13.4133 6.67178 14.08 6.88729 14.9689 6.88729C15.8578 6.88729 16.5244 6.67178 16.9422 6.24974C17.3689 5.81872 17.5822 5.10933 17.5822 4.13954C17.5822 3.16974 17.36 2.46035 16.9333 2.02933C16.5156 1.60729 15.8578 1.39178 14.9689 1.39178C14.08 1.39178 13.4311 1.60729 13.0133 2.02933L13.0044 2.02035ZM14.9689 8.26117C13.7244 8.26117 12.7556 7.91097 12.0978 7.2375C11.3956 6.52811 11.0489 5.48648 11.0489 4.13056C11.0489 2.77464 11.3956 1.72403 12.0978 1.01464C12.7644 0.332191 13.7333 -0.0090332 14.9778 -0.0090332C16.2222 -0.0090332 17.1911 0.341171 17.8578 1.01464C18.56 1.72403 18.9067 2.77464 18.9067 4.13056C18.9067 5.48648 18.56 6.52811 17.8578 7.2375C17.1822 7.91097 16.2133 8.26117 14.9778 8.26117H14.9689ZM8.35556 6.43831C8.19556 6.59995 8.17778 6.96811 8.17778 7.18362C8.17778 7.39913 8.20445 7.75831 8.35556 7.91995C8.47111 8.03668 8.71112 8.09954 9.04889 8.09954C9.38667 8.09954 9.62667 8.03668 9.75112 7.91995C9.91112 7.75831 9.92889 7.39015 9.92889 7.18362C9.92889 6.97709 9.90223 6.59995 9.74223 6.43831C9.62667 6.32158 9.37778 6.25872 9.04889 6.25872C8.71112 6.25872 8.47111 6.33056 8.35556 6.44729V6.43831ZM9.04889 9.49137C8.35556 9.49137 7.81334 9.3028 7.44 8.91668C7.04889 8.52158 6.85334 7.93791 6.85334 7.18362C6.85334 6.42933 7.04889 5.83668 7.44 5.44158C7.81334 5.06444 8.35556 4.86689 9.04889 4.86689C9.74223 4.86689 10.2844 5.05546 10.6578 5.44158C11.0311 5.8277 11.2444 6.42036 11.2444 7.18362C11.2444 7.94689 11.0489 8.53056 10.6578 8.92566C10.2844 9.3028 9.73334 9.49137 9.04889 9.49137ZM20.2489 6.50117C20.0978 6.65382 20.0711 7.01301 20.0711 7.21056C20.0711 7.40811 20.0978 7.75831 20.2489 7.91995C20.3556 8.0277 20.5956 8.09954 20.9156 8.09954C21.2356 8.09954 21.4667 8.03668 21.5822 7.92893C21.6889 7.82117 21.7511 7.56076 21.7511 7.21954C21.7511 7.02199 21.7244 6.6628 21.5733 6.51015C21.4667 6.4024 21.2267 6.33954 20.9156 6.33954C20.5956 6.33954 20.3556 6.39342 20.2489 6.51015V6.50117ZM19.3333 8.91668C18.9511 8.53056 18.7556 7.95586 18.7556 7.21056C18.7556 6.46525 18.9511 5.89056 19.3333 5.50444C19.6978 5.12729 20.2311 4.93872 20.9156 4.93872C21.6 4.93872 22.1333 5.12729 22.4978 5.50444C22.88 5.89056 23.0756 6.46525 23.0756 7.21056C23.0756 7.95586 22.88 8.53056 22.4978 8.91668C22.1333 9.29383 21.6 9.47342 20.9156 9.47342C20.24 9.47342 19.7067 9.28485 19.3333 8.91668ZM24 13.9363V13.631C24 13.1012 23.8489 12.6612 23.5733 12.3469C23.2622 12.0057 22.7822 11.8261 22.1778 11.8261H21.3156C21.6444 12.4187 21.8311 13.1371 21.9022 13.9273H24V13.9363ZM20.6311 15.1126V14.5469C20.6311 13.5053 20.3556 12.6432 19.84 12.0416C19.1467 11.2334 18.1067 11.0718 17.36 11.0718H12.5689C11.8222 11.0718 10.7822 11.2424 10.0978 12.0416C9.58223 12.6342 9.31556 13.5053 9.31556 14.5469V15.1126H20.6222H20.6311ZM8.04445 13.9542C8.10667 13.173 8.29334 12.4546 8.62223 11.853H7.81334C7.20889 11.853 6.72889 12.0326 6.41778 12.3738C6.13334 12.6791 5.99111 13.1191 5.99111 13.6489V13.9542H8.03556H8.04445ZM24.5333 11.395C25.0578 11.9697 25.3244 12.742 25.3244 13.631V14.3763C25.3244 14.8971 24.9156 15.3191 24.4267 15.3191H21.9556V16.0016C21.9556 16.2799 21.76 16.5044 21.5111 16.5044H8.45334C8.20445 16.5044 8.00889 16.2799 8.00889 16.0016V15.3371H5.58223C5.08445 15.3371 4.68445 14.915 4.68445 14.3853V13.6399C4.68445 12.742 4.96 11.9697 5.47556 11.404C6.03556 10.7844 6.84445 10.4612 7.82223 10.4612H9.84889C10.5867 9.94933 11.5111 9.67097 12.5867 9.67097H17.3689C18.4267 9.67097 19.3422 9.94036 20.08 10.4342H22.1867C23.1556 10.4342 23.9733 10.7665 24.5333 11.3771V11.395Z" fill="#006AFF"></path></g><defs><clipPath id="clip0_1_20"><rect width="30" height="44" fill="white"></rect></clipPath></defs></svg> 